<svg xmlns="http://www.w3.org/2000/svg" xmlns:xlink="http://www.w3.org/1999/xlink" width="798.325" height="812.29" viewBox="0 0 798.325 812.29">
  <defs>
    <clipPath id="clip-path">
      <ellipse id="Elipse_6" data-name="Elipse 6" cx="114.62" cy="24.772" rx="114.62" ry="24.772" transform="translate(0)" fill="#263238" stroke="#263238" stroke-linecap="round" stroke-linejoin="round" stroke-width="1"/>
    </clipPath>
  </defs>
  <g id="Headphone-bro" transform="translate(-74.26 -92.41)">
    <g id="freepik--Device--inject-19" transform="translate(74.76 797.413)">
      <path id="Caminho_901" data-name="Caminho 901" d="M871.79,485.857H74.76L182.41,405.5H764.141Z" transform="translate(-74.76 -400.232)" fill="#707070" stroke="#263238" stroke-linecap="round" stroke-linejoin="round" stroke-width="1"/>
      <rect id="Retângulo_124" data-name="Retângulo 124" width="797.325" height="21.162" transform="translate(0 85.625)" fill="#263238" stroke="#263238" stroke-linecap="round" stroke-linejoin="round" stroke-width="1"/>
      <path id="Caminho_902" data-name="Caminho 902" d="M871.79,485.857H74.76L182.41,405.5H764.141Z" transform="translate(-74.76 -400.232)" fill="#707070" stroke="#263238" stroke-linecap="round" stroke-linejoin="round" stroke-width="1"/>
      <path id="Caminho_903" data-name="Caminho 903" d="M120.968,462.457H107.73l60.035-52H178.55Z" transform="translate(-32.868 -393.93)" fill="#263238" stroke="#263238" stroke-linecap="round" stroke-linejoin="round" stroke-width="1"/>
      <path id="Caminho_904" data-name="Caminho 904" d="M134.67,423.457H122.84l6.539-5.677h11.557Z" transform="translate(-13.669 -384.629)" fill="#15ff15" stroke="#263238" stroke-linecap="round" stroke-linejoin="round" stroke-width="1"/>
      <path id="Caminho_905" data-name="Caminho 905" d="M132.015,462.457H118.8l55.38-52h10.763Z" transform="translate(-18.802 -393.93)" fill="#263238" stroke="#263238" stroke-linecap="round" stroke-linejoin="round" stroke-width="1"/>
      <path id="Caminho_906" data-name="Caminho 906" d="M137.07,431.734H124.4l6.9-6.494h12.352Z" transform="translate(-11.687 -375.15)" fill="#15ff15" stroke="#263238" stroke-linecap="round" stroke-linejoin="round" stroke-width="1"/>
      <path id="Caminho_907" data-name="Caminho 907" d="M143.1,462.457H129.86l50.725-52h10.763Z" transform="translate(-4.749 -393.93)" fill="#263238" stroke="#263238" stroke-linecap="round" stroke-linejoin="round" stroke-width="1"/>
      <path id="Caminho_908" data-name="Caminho 908" d="M149.975,428.9H137.6l6.04-6.2h12.1Z" transform="translate(5.085 -378.378)" fill="#15ff15" stroke="#263238" stroke-linecap="round" stroke-linejoin="round" stroke-width="1"/>
      <path id="Caminho_909" data-name="Caminho 909" d="M154.145,462.457H140.93l46.048-52h10.785Z" transform="translate(9.316 -393.93)" fill="#263238" stroke="#263238" stroke-linecap="round" stroke-linejoin="round" stroke-width="1"/>
      <path id="Caminho_910" data-name="Caminho 910" d="M164.34,423.457H152.51l5.041-5.677h11.557Z" transform="translate(24.03 -384.629)" fill="#15ff15" stroke="#263238" stroke-linecap="round" stroke-linejoin="round" stroke-width="1"/>
      <path id="Caminho_911" data-name="Caminho 911" d="M165.228,462.457H151.99l41.393-52h10.785Z" transform="translate(23.369 -393.93)" fill="#263238" stroke="#263238" stroke-linecap="round" stroke-linejoin="round" stroke-width="1"/>
      <path id="Caminho_912" data-name="Caminho 912" d="M174.24,423.457H162.41l4.518-5.677h11.557Z" transform="translate(36.609 -384.629)" fill="#fff" stroke="#263238" stroke-linecap="round" stroke-linejoin="round" stroke-width="1"/>
      <path id="Caminho_913" data-name="Caminho 913" d="M192.715,462.457H179.5l29.813-52h10.763Z" transform="translate(58.324 -393.93)" fill="#263238" stroke="#263238" stroke-linecap="round" stroke-linejoin="round" stroke-width="1"/>
      <path id="Caminho_914" data-name="Caminho 914" d="M194.875,432.392H182.16l3.747-6.562h12.42Z" transform="translate(61.704 -374.401)" fill="#15ff15" stroke="#263238" stroke-linecap="round" stroke-linejoin="round" stroke-width="1"/>
      <path id="Caminho_915" data-name="Caminho 915" d="M203.8,462.457H190.56l25.158-52h10.763Z" transform="translate(72.377 -393.93)" fill="#263238" stroke="#263238" stroke-linecap="round" stroke-linejoin="round" stroke-width="1"/>
      <path id="Caminho_916" data-name="Caminho 916" d="M210.044,419.723H198.6l2.566-5.313H212.36Z" transform="translate(82.593 -388.911)" fill="#15ff15" stroke="#263238" stroke-linecap="round" stroke-linejoin="round" stroke-width="1"/>
      <path id="Caminho_917" data-name="Caminho 917" d="M214.845,462.457H201.63l20.481-52H232.9Z" transform="translate(86.443 -393.93)" fill="#263238" stroke="#263238" stroke-linecap="round" stroke-linejoin="round" stroke-width="1"/>
      <path id="Caminho_918" data-name="Caminho 918" d="M218.159,425.106H206.17l2.293-5.836H220.18Z" transform="translate(92.211 -382.736)" fill="#15ff15" stroke="#263238" stroke-linecap="round" stroke-linejoin="round" stroke-width="1"/>
      <path id="Caminho_919" data-name="Caminho 919" d="M225.928,462.457H212.69l15.826-52H239.3Z" transform="translate(100.496 -393.93)" fill="#263238" stroke="#263238" stroke-linecap="round" stroke-linejoin="round" stroke-width="1"/>
      <path id="Caminho_920" data-name="Caminho 920" d="M227.353,429.577H214.91l1.907-6.267h12.148Z" transform="translate(103.316 -377.603)" fill="#15ff15" stroke="#263238" stroke-linecap="round" stroke-linejoin="round" stroke-width="1"/>
      <path id="Caminho_921" data-name="Caminho 921" d="M237,462.457H223.76l11.171-52h10.763Z" transform="translate(114.561 -393.93)" fill="#263238" stroke="#263238" stroke-linecap="round" stroke-linejoin="round" stroke-width="1"/>
      <path id="Caminho_922" data-name="Caminho 922" d="M237.354,433.728H224.48l1.453-6.7H238.49Z" transform="translate(115.476 -372.876)" fill="#15ff15" stroke="#263238" stroke-linecap="round" stroke-linejoin="round" stroke-width="1"/>
      <path id="Caminho_923" data-name="Caminho 923" d="M249.2,432.914c-.182,2.271-3.451,4.178-7.357,4.178s-6.812-1.885-6.517-4.178,3.565-4.064,7.334-4.064S249.354,430.644,249.2,432.914Z" transform="translate(129.225 -370.563)" fill="#15ff15" stroke="#263238" stroke-linecap="round" stroke-linejoin="round" stroke-width="1"/>
      <path id="Caminho_924" data-name="Caminho 924" d="M414.328,432.914c2.952,2.271,2.271,4.178-1.658,4.178a22.705,22.705,0,0,1-12.216-4.178c-2.793-2.271-1.953-4.064,1.816-4.064A22.706,22.706,0,0,1,414.328,432.914Z" transform="translate(336.972 -370.563)" fill="#15ff15" stroke="#263238" stroke-linecap="round" stroke-linejoin="round" stroke-width="1"/>
      <path id="Caminho_925" data-name="Caminho 925" d="M182.063,432.916a12.534,12.534,0,0,1-9.673,4.178c-3.905,0-5.745-1.885-4.178-4.178a12.692,12.692,0,0,1,9.6-4.064C181.5,428.852,183.4,430.646,182.063,432.916Z" transform="translate(43.273 -370.565)" fill="#15ff15" stroke="#263238" stroke-linecap="round" stroke-linejoin="round" stroke-width="1"/>
      <path id="Caminho_926" data-name="Caminho 926" d="M185.831,425.976c-1.294,2.066-5.336,3.746-9.082,3.746s-5.495-1.68-4.087-3.746a11.853,11.853,0,0,1,8.923-3.633C185.24,422.343,187.1,423.955,185.831,425.976Z" transform="translate(49.019 -378.839)" fill="#15ff15" stroke="#263238" stroke-linecap="round" stroke-linejoin="round" stroke-width="1"/>
      <path id="Caminho_927" data-name="Caminho 927" d="M188.65,420.69c-1.181,1.885-5,3.406-8.492,3.406s-5.291-1.521-4.019-3.406a11.352,11.352,0,0,1,8.447-3.315C187.991,417.374,189.808,418.8,188.65,420.69Z" transform="translate(53.534 -385.154)" fill="#15ff15" stroke="#263238" stroke-linecap="round" stroke-linejoin="round" stroke-width="1"/>
      <path id="Caminho_928" data-name="Caminho 928" d="M249.256,426.316c-.159,2.066-3.27,3.747-6.948,3.747s-6.449-1.68-6.2-3.747,3.36-3.656,6.925-3.656S249.505,424.272,249.256,426.316Z" transform="translate(130.232 -378.429)" fill="#15ff15" stroke="#263238" stroke-linecap="round" stroke-linejoin="round" stroke-width="1"/>
      <path id="Caminho_929" data-name="Caminho 929" d="M433.72,432.153a2.271,2.271,0,0,0-1.113-.931l-28.814-10.286v-9.082h-7.675v6.335l-3.678-1.317v-5.018h-7.652v2.271l-22.343-7.993V403.18H341.76v10.944h20.685v-3l22.343,8.015v10.99h7.652V421.89l3.678,1.317v6.925h7.675v-4.178L421,432.13h-5.54v10.99h20.663V432.13Z" transform="translate(264.493 -403.18)" fill="#263238" stroke="#263238" stroke-linecap="round" stroke-linejoin="round" stroke-width="1"/>
      <path id="Caminho_930" data-name="Caminho 930" d="M486.108,422.831H450.074a322.833,322.833,0,0,0-78.586-10.241,339.884,339.884,0,0,0-81.242,10.241H256.867l-7.947,14.532c0,13.624,54.881,24.772,122.613,24.772s122.613-11.081,122.613-24.772Z" transform="translate(146.53 -391.224)" fill="#fff" stroke="#263238" stroke-linecap="round" stroke-linejoin="round" stroke-width="1"/>
      <ellipse id="Elipse_5" data-name="Elipse 5" cx="114.62" cy="24.772" rx="114.62" ry="24.772" transform="translate(403.397 6.834)" fill="#263238"/>
      <g id="Grupo_34" data-name="Grupo 34" transform="translate(403.397 6.834)" clip-path="url(#clip-path)">
        <path id="Caminho_931" data-name="Caminho 931" d="M313.374,451.273l58.786-23.206,106.287-4.337c-7.607-7.062-29.245-12.988-58.264-16.28l-51,15.417-116.6,8.538C255.792,440.011,279.542,447.413,313.374,451.273Z" transform="translate(-252.204 -404.589)" fill="#ababab"/>
      </g>
      <ellipse id="Elipse_7" data-name="Elipse 7" cx="114.62" cy="24.772" rx="114.62" ry="24.772" transform="translate(403.397 6.834)" fill="none" stroke="#263238" stroke-linecap="round" stroke-linejoin="round" stroke-width="1"/>
      <ellipse id="Elipse_8" data-name="Elipse 8" cx="44.322" cy="9.582" rx="44.322" ry="9.582" transform="translate(473.695 18.074)" fill="#fff" stroke="#263238" stroke-linecap="round" stroke-linejoin="round" stroke-width="1"/>
      <path id="Caminho_932" data-name="Caminho 932" d="M319.579,415.571c0,1.294-4.791,2.271-10.695,2.271s-10.695-1.022-10.695-2.271,4.791-2.271,10.695-2.271S319.579,414.3,319.579,415.571Z" transform="translate(209.133 -390.321)" fill="#263238" stroke="#263238" stroke-linecap="round" stroke-linejoin="round" stroke-width="1"/>
    </g>
    <g id="freepik--Character--inject-19" transform="translate(236.063 92.91)">
      <path id="Caminho_933" data-name="Caminho 933" d="M248.852,468.74l12.216-50.453s11.24,104.448,12.557,121.569c1.09,14.123-9.423,107.672-13.215,140.528H512.788L487.675,536.541l3.974-138.734,15.19,68.118s32.379,1.317,60.126-9.9,33.7-20.436,33.7-20.436S538.56,291.565,528,271.742s-11.217-24.454-11.217-24.454S434.861,212.933,387.36,189.16l-33.7,4.541s-133.467,56.765-136.1,61.443S180.893,408,162.41,439.7c0,0,38.964,22.479,62.76,25.771Z" transform="translate(-124.694 29.386)" fill="#15ff15" stroke="#263238" stroke-linecap="round" stroke-linejoin="round" stroke-width="1"/>
      <path id="Caminho_1276" data-name="Caminho 1276" d="M91.869,0A91.869,91.869,0,1,1,0,91.869,91.869,91.869,0,0,1,91.869,0Z" transform="translate(142.227 494.572) rotate(-80.52)" fill="#5e5e5e"/>
      <path id="Caminho_934" data-name="Caminho 934" d="M274.571,325.554l-34.354,87.918a92.05,92.05,0,0,0,74.317-1.158L276.5,327.825l33.015-84.535a91.8,91.8,0,0,0-71.116,1.817Z" transform="translate(-28.14 90.172)" fill="#ababab"/>
      <circle id="Elipse_10" data-name="Elipse 10" cx="45.39" cy="45.39" r="45.39" transform="translate(195.682 456.287) rotate(-80.46)" fill="#fff"/>
      <path id="Caminho_935" data-name="Caminho 935" d="M268.811,282.415a8.855,8.855,0,1,1-8.855-8.855A8.855,8.855,0,0,1,268.811,282.415Z" transform="translate(-12.003 136.626)" fill="#5e5e5e"/>
      <path id="Caminho_936" data-name="Caminho 936" d="M268.467,193.719s-17.052,7.266-39.077,16.8v.431c0,37.125,22.434,67.21,50.09,67.21s50.112-30.086,50.112-67.21c0-3-.159-5.972-.431-8.878-9.627-4.541-18.823-8.878-27-12.965Z" transform="translate(-39.588 29.323)" fill="none" stroke="#263238" stroke-linecap="round" stroke-linejoin="round" stroke-width="1"/>
      <line id="Linha_5" data-name="Linha 5" x1="20.64" y1="88.236" transform="translate(115.735 359.438)" fill="none" stroke="#263238" stroke-linecap="round" stroke-linejoin="round" stroke-width="1"/>
      <line id="Linha_6" data-name="Linha 6" x1="26.929" y1="34.264" transform="translate(94.913 353.307)" fill="none" stroke="#263238" stroke-linecap="round" stroke-linejoin="round" stroke-width="1"/>
      <path id="Caminho_937" data-name="Caminho 937" d="M311.258,329.93s-8.9-54.29-6.449-87.35" transform="translate(55.697 97.262)" fill="none" stroke="#263238" stroke-linecap="round" stroke-linejoin="round" stroke-width="1"/>
      <path id="Caminho_938" data-name="Caminho 938" d="M306.9,320.281s-2.452-51.407,6.131-77.2" transform="translate(58.487 97.898)" fill="none" stroke="#263238" stroke-linecap="round" stroke-linejoin="round" stroke-width="1"/>
      <path id="Caminho_939" data-name="Caminho 939" d="M232.63,174.27s3.315,52.86,4.541,68.118,15.19,40.871,40.3,39.645,33.7-29.745,35.013-40.3,0-64.1,0-64.1-21.8,18.505-46.252,13.873A82.219,82.219,0,0,1,232.63,174.27Z" transform="translate(-35.471 10.467)" fill="#b2b2b2" stroke="#263238" stroke-linecap="round" stroke-linejoin="round" stroke-width="1"/>
      <path id="Caminho_940" data-name="Caminho 940" d="M312.578,177.562s-21.8,18.505-46.252,13.873a82.218,82.218,0,0,1-33.7-17.166s.863,13.624,1.862,29.132c10.445,12.284,23.819,23.524,29.859,25.93,9.9,3.974,25.749,2.634,33.7-4.541A202.938,202.938,0,0,0,313.1,210.009C312.942,193.661,312.578,177.562,312.578,177.562Z" transform="translate(-35.471 3.632)" fill="#263238" stroke="#263238" stroke-linecap="round" stroke-linejoin="round" stroke-width="1" opacity="0.17"/>
      <path id="Caminho_941" data-name="Caminho 941" d="M238.5,113.553s-15.19,10.581-15.19,29.064,5.29,99.112,9.241,116.278,33.7,44.935,43.618,48.886,25.749,2.657,33.7-4.541,36.33-31.789,37.647-60.784,3.974-68.118,0-92.5-18.506-40.871-37.647-47.569S251.738,100.338,238.5,113.553Z" transform="translate(-47.313 -84.738)" fill="#b2b2b2" stroke="#263238" stroke-linecap="round" stroke-linejoin="round" stroke-width="1"/>
      <path id="Caminho_942" data-name="Caminho 942" d="M309.876,102.32c-19.164-6.607-58.15-1.975-71.365,11.24,0,0-15.19,10.581-15.19,29.064,0,5.767.522,17.575,1.34,31.607l1.294.772s2.657-22.456,21.821-30.381,46.888,3.292,60.762,1.975,25.113-27.747,25.771-20.436-15.19,20.436-14.532,22.456,10.581,12.557,19.164,27.747c4.11,7.266,7.607,11.489,10.649,12.92a243.826,243.826,0,0,0-2.112-39.4C343.572,125.458,329.017,108.928,309.876,102.32Z" transform="translate(-47.301 -84.746)" fill="#263238" stroke="#263238" stroke-linecap="round" stroke-linejoin="round" stroke-width="1"/>
      <path id="Caminho_943" data-name="Caminho 943" d="M231.76,150.12s8.583,7.924,22.456,0" transform="translate(-36.577 -20.218)" fill="none" stroke="#263238" stroke-linecap="round" stroke-linejoin="round" stroke-width="2"/>
      <path id="Caminho_944" data-name="Caminho 944" d="M258.82,150.12s8.583,7.924,22.456,0" transform="translate(-2.194 -20.218)" fill="none" stroke="#263238" stroke-linecap="round" stroke-linejoin="round" stroke-width="2"/>
      <path id="Caminho_945" data-name="Caminho 945" d="M230.59,144.6s9.264-11.9,27.747-5.291" transform="translate(-38.063 -36.495)" fill="none" stroke="#263238" stroke-linecap="round" stroke-linejoin="round" stroke-width="2"/>
      <path id="Caminho_946" data-name="Caminho 946" d="M257.65,142.22s11.353-13.873,30.4,0" transform="translate(-3.681 -38.09)" fill="none" stroke="#263238" stroke-linecap="round" stroke-linejoin="round" stroke-width="2"/>
      <path id="Caminho_947" data-name="Caminho 947" d="M242.907,160.3s-1.317,6.607,3.315,9.923,14.532,9.9,20.435,7.266,15.19-5.949,15.894-9.923l.659-3.951" transform="translate(-22.633 -7.283)" fill="none" stroke="#263238" stroke-linecap="round" stroke-linejoin="round" stroke-width="1"/>
      <path id="Caminho_948" data-name="Caminho 948" d="M241.36,169.32s22.456,19.822,51.52,0" transform="translate(-24.379 4.177)" fill="none" stroke="#263238" stroke-linecap="round" stroke-linejoin="round" stroke-width="1"/>
      <path id="Caminho_949" data-name="Caminho 949" d="M219.042,175.7a3.565,3.565,0,0,1-3.565-3.338c0-1.612-2.588-39.645,9.718-60.83a3.588,3.588,0,0,1,6.2,3.588c-11.217,19.3-8.81,56.379-8.787,56.765a3.565,3.565,0,0,1-3.315,3.815Z" transform="translate(-57.554 -71.294)" fill="#858585" stroke="#263238" stroke-linecap="round" stroke-linejoin="round" stroke-width="1"/>
      <path id="Caminho_950" data-name="Caminho 950" d="M290.855,175.7h-.25a3.565,3.565,0,0,1-3.315-3.815c0-.363,2.407-37.465-8.787-56.765a3.588,3.588,0,0,1,6.2-3.588c12.307,21.185,9.832,59.218,9.718,60.83a3.565,3.565,0,0,1-3.565,3.338Z" transform="translate(22.332 -71.294)" fill="#858585" stroke="#263238" stroke-linecap="round" stroke-linejoin="round" stroke-width="1"/>
      <path id="Caminho_951" data-name="Caminho 951" d="M377.537,149.312a67.46,67.46,0,0,0-15.327-29.518c-9.786-11.171-27.384-24.023-57.628-26.5a8.6,8.6,0,0,0-2.271-.386h-12.6a8.606,8.606,0,0,0-2.271.386c-63.01,5.132-72.841,55.494-72.955,56.039a8.356,8.356,0,1,0,16.439,2.952c0-.431,8.242-41.643,65.053-42.687,56.243,1.022,64.576,40.871,64.94,42.733a8.355,8.355,0,1,0,16.44-3Z" transform="translate(-58.764 -92.91)" fill="#858585" stroke="#263238" stroke-linecap="round" stroke-linejoin="round" stroke-width="1"/>
      <path id="Caminho_952" data-name="Caminho 952" d="M220.32,158.53s3.179,112.94,15.894,222.724c12.1,104.335,7.675,253.219-.3,336.686" transform="translate(-51.112 -9.532)" fill="none" stroke="#263238" stroke-linecap="round" stroke-linejoin="round" stroke-width="1"/>
      <path id="Caminho_953" data-name="Caminho 953" d="M346.694,158.18s-17.484,180.559-40.553,245-53.291,83.513-76.361,45.412" transform="translate(-39.093 -9.977)" fill="none" stroke="#263238" stroke-linecap="round" stroke-linejoin="round" stroke-width="1"/>
      <path id="Caminho_954" data-name="Caminho 954" d="M232.856,135.3H232.2c-12.784,0-23.138,13.465-23.138,30.063s10.354,30.063,23.138,30.063h.658Z" transform="translate(-65.42 -39.049)" fill="#fff" stroke="#263238" stroke-linecap="round" stroke-linejoin="round" stroke-width="1"/>
      <rect id="Retângulo_125" data-name="Retângulo 125" width="18.505" height="66.733" rx="3.32" transform="translate(161.487 92.891)" fill="#858585" stroke="#263238" stroke-linecap="round" stroke-linejoin="round" stroke-width="1"/>
      <path id="Caminho_955" data-name="Caminho 955" d="M284.13,135.3h.658c12.784,0,23.138,13.465,23.138,30.063s-10.354,30.063-23.138,30.063h-.658Z" transform="translate(29.965 -39.049)" fill="#fff" stroke="#263238" stroke-linecap="round" stroke-linejoin="round" stroke-width="1"/>
      <rect id="Retângulo_126" data-name="Retângulo 126" width="18.505" height="66.733" rx="3.32" transform="translate(320.044 159.647) rotate(180)" fill="#858585" stroke="#263238" stroke-linecap="round" stroke-linejoin="round" stroke-width="1"/>
      <path id="Caminho_956" data-name="Caminho 956" d="M257.674,321.453l-11.489-1.589c-13.238-1.839-31.176-9.6-44.481-16.144a236.552,236.552,0,0,0-17.62,68.345c-3.043,26.271-31.789,110.988-37.011,125.519s7.266,21.8,7.947,35.013,22.456,23.138,24.432,26.43,9.923,3.974,8.583-2.634-5.926-12.556-5.268-18.505,4.541-29.064,4.541-29.064,7.924,3.951,10.581,7.924-2.657,15.894-5.291,25.772,3.315,19.164,5.949,17.824,7.924-23.115,13.873-35.013,4.541-16.507-.658-23.115-23.8-37.669-23.8-37.669,50.884-87.192,58.809-107.014A323.333,323.333,0,0,0,257.674,321.453Z" transform="translate(-145.799 174.948)" fill="#b2b2b2" stroke="#263238" stroke-linecap="round" stroke-linejoin="round" stroke-width="1"/>
      <path id="Caminho_957" data-name="Caminho 957" d="M172.135,303.72c-.954,2.157-2,4.541-3.065,7.425a79.471,79.471,0,0,0,57.242,17.166c.613-2.271,1.226-4.655,1.794-6.812l-11.489-1.589C203.379,317.979,185.441,310.259,172.135,303.72Z" transform="translate(-116.231 174.948)" fill="#263238" stroke="#263238" stroke-linecap="round" stroke-linejoin="round" stroke-width="1"/>
      <path id="Caminho_958" data-name="Caminho 958" d="M155.433,396.564s1.34,26.43,0,33.7,11.9,13.215,13.873,19.164,11.9,9.9,12.556-2-11.217-22.456-11.217-22.456l6.63-32.379" transform="translate(-133.679 287.867)" fill="#b2b2b2" stroke="#263238" stroke-linecap="round" stroke-linejoin="round" stroke-width="1"/>
      <line id="Linha_7" data-name="Linha 7" x2="1.34" y2="15.19" transform="translate(7.881 686.406)" fill="none" stroke="#263238" stroke-linecap="round" stroke-linejoin="round" stroke-width="1"/>
      <path id="Caminho_959" data-name="Caminho 959" d="M442.066,316.8c-10.309,4.178-30.108,8.061-39.8,9.469-9.082,11.966-27.452,44.754-57.878,86.51-18.165,24.977-37.374,38.85-39.372,44.141s-28.678,52.428-35.285,62.987-11.9,17.189-7.266,17.847,6.607,1.317,14.532-8.583,20.436-36.33,20.436-36.33-10.581,40.281-13.215,46.23-5.29,9.264-.659,11.24,12.557.659,17.824-9.241,26.43-51.543,26.43-51.543-16.507,50.2-19.141,55.494,7.924,7.924,11.217,1.975,12.329-36.784,14.328-38.759,8.288-12.874,11.353-28.042c1.181-5.972,2.384-22.07,2.384-22.07s81.538-69.98,103.994-93.754,31.789-35.694,31.789-46.911c0-6.426-5.4-13.624-10.036-18.778C470.108,302.131,461.389,308.966,442.066,316.8Z" transform="translate(0.205 168.544)" fill="#b2b2b2" stroke="#263238" stroke-linecap="round" stroke-linejoin="round" stroke-width="1"/>
      <path id="Caminho_960" data-name="Caminho 960" d="M399.794,300.792c-.636-.727-1.249-1.453-1.862-2.112-3.542,3.451-12.261,10.286-31.584,18.165-10.309,4.178-30.108,8.061-39.8,9.468-1.726,2.271-3.815,5.381-6.244,9.082C339.6,335.373,376,330.877,399.794,300.792Z" transform="translate(75.923 168.544)" fill="#263238" stroke="#263238" stroke-linecap="round" stroke-linejoin="round" stroke-width="1"/>
      <path id="Caminho_961" data-name="Caminho 961" d="M270.79,443.883s19.164-31.789,26.43-61.443" transform="translate(13.015 274.97)" fill="none" stroke="#263238" stroke-linecap="round" stroke-linejoin="round" stroke-width="1"/>
    </g>
  </g>
</svg>
