<?xml version="1.0" encoding="utf-8"?>
<!-- Generator: Adobe Illustrator 25.2.0, SVG Export Plug-In . SVG Version: 6.00 Build 0)  -->
<svg version="1.1" xmlns="http://www.w3.org/2000/svg" xmlns:xlink="http://www.w3.org/1999/xlink" x="0px" y="0px"
	 viewBox="0 0 600 400" style="enable-background:new 0 0 600 400;" xml:space="preserve">
<style type="text/css">
	.st0{fill:#15FF14;}
	.st1{fill:#FFFFFF;}
</style>
<g id="Layer_2">
</g>
<g id="Layer_1">
	<g>
		<path class="st0" d="M308,120.1c-5.2-1.9-17.5-2.4-22.7-0.9c-19.6,5.6-31.5,25.6-27,45.1c3.2,13.5,13.9,24.5,27.3,28
			c4.9,1.3,14.5,1.3,19.3,0c14.5-3.9,25.6-16.4,27.7-31.2C335.2,143.5,324.7,126.2,308,120.1z"/>
		<path class="st0" d="M192,172.4l5.4,1.9l1.9,6.7c7.7,26.9,24.5,53.6,50.2,80c14.9,15.3,35,32.4,40.9,34.9c3,1.2,8.8,0.8,11.5-1
			c6.3-4.1,19.5-15.5,31.9-27.5c22.7-22.3,38.3-43,48.8-64.9c4-8.4,8.7-21,9.6-26.1c0.4-2.1,0.8-2.4,5.7-3.9
			c15.4-4.9,25.5-15.9,27.3-29.7c2.2-17.3-5.1-30.6-21.1-38.3l-6.6-3.2v-9.4c0-11.7-1-20.3-2.8-25.9c-9.3-27.3-38.3-47.8-77.3-54.7
			c-5.5-1-25.3-1.7-32.7-1.3c-6.5,0.4-13.8,1.6-22.8,3.8c-28.8,7-52.3,23.9-62.7,45.1c-4.4,9-5.2,13-5.7,28.8l-0.4,13.6l-6.5,3.2
			c-15.9,7.8-23.3,21.1-21,38.4C167.1,156.6,176.5,167,192,172.4z M223.6,137.3l-0.1-37.1h5.2h5.2v37.3v37.3l-5-0.2l-5-0.2
			L223.6,137.3z M362.4,181.8c-6.3,17.7-21.3,39.5-41,60.1c-9.5,9.9-25,23.9-26.3,23.9c-2.9,0-31.5-27.8-41.6-40.4
			c-6.1-7.7-14.3-19.6-18.2-26.7c-2.3-4.3-8.1-17.5-8.8-20.2c-0.4-1.7-0.3-1.7,2.8-1.7c6.3,0,5.9,2.9,5.9-33.6v-32.1l2.4-3.3
			c5.3-7.2,16.4-16.4,25.5-20.9c6.3-3.1,14.6-5.5,23.8-7c4.3-0.6,14-0.3,19.7,0.6c18.4,3,35.7,13.4,46.7,28l1.9,2.5v32.2
			c0,36.5-0.5,33.6,5.8,33.6h3.2L362.4,181.8z M367,137.5v37.3h-5.2h-5.2v-37.3v-37.3h5.2h5.2V137.5z M367.9,84.4
			c-15.4-16.2-32.2-25.5-54.8-30.2c-8.1-1.7-26.9-1.7-35.5-0.1c-9.7,1.9-17.3,4.4-25.5,8.4C240.8,68,234.4,72.7,224.9,82l-8.6,8.4
			l0.4-7.7c0.5-8.4,1.3-11.9,4.5-18.1c7-13.9,21.3-25.3,39.1-31.2c9-3,11.7-3.7,18.6-4.6c8.7-1.2,22.8-1.2,31.8,0
			c22.6,3,43.7,14.1,53.7,28.2c6.6,9.2,8.6,15,9.2,25.9l0.4,7.9L367.9,84.4z M190.2,105l4.6-1.9l0.4-14.4
			c0.5-16.3,1.3-20.4,6.1-29.8c9.1-18.1,28.5-33,53.1-40.9c7.5-2.3,18-4.6,27-5.7c1.3-0.1,8.6-0.2,16.2-0.1
			c16.2,0.2,25,1.5,38.4,5.8c9.7,3.2,22.3,9.2,29.4,14.2c10.1,7.2,18.9,17,23.7,26.7c4.8,9.5,5.6,13.5,5.9,29.7l0.3,14.4l2.6,1
			c17.4,7,25.6,17.7,25.6,33.4c-0.1,6.1-0.8,10-3.1,14.8c-5.7,11.9-20.8,20.4-39.8,22.2l-4.7,0.5v-47.5c0-38.4-0.2-48.4-1-52.2
			C370,52,348.7,34.6,316.6,27.7c-6.2-1.4-9.2-1.6-21.4-1.6c-12.1,0-15.2,0.2-21.4,1.6c-19.2,4.1-33.6,11.5-44.5,22.6
			c-6.3,6.4-9.9,12.1-12.6,19.9l-1.9,5.5l-0.2,49.5l-0.2,49.5h-2.3c-3.6,0-13.5-1.9-17.8-3.4c-18.4-6.3-27.5-17.5-27.5-33.9
			C166.9,122.4,174.9,111.2,190.2,105z"/>
		<path d="M194.3,171.3c4.3,1.5,14.2,3.4,17.8,3.4h2.3l0.2-49.5l0.2-49.5l1.9-5.5c2.7-7.8,6.3-13.5,12.6-19.9
			c10.9-11.1,25.3-18.4,44.5-22.6c6.2-1.4,9.2-1.6,21.4-1.6c12.1,0,15.2,0.2,21.4,1.6c32.1,6.9,53.4,24.3,58.3,47.5
			c0.8,3.7,1,13.8,1,52.2v47.5l4.7-0.5c19-1.8,34.2-10.2,39.8-22.2c2.3-4.8,3-8.7,3.1-14.8c0-15.7-8.2-26.4-25.6-33.4l-2.6-1
			l-0.3-14.4c-0.3-16.2-1.2-20.2-5.9-29.7c-4.8-9.7-13.6-19.5-23.7-26.7c-7.1-5-19.7-11-29.4-14.2c-13.4-4.3-22.2-5.6-38.4-5.8
			c-7.6-0.1-14.9-0.1-16.2,0.1c-9,1.1-19.5,3.4-27,5.7c-24.6,7.9-44,22.8-53.1,40.9c-4.8,9.5-5.6,13.5-6.1,29.8l-0.4,14.4l-4.6,1.9
			c-15.3,6.2-23.3,17.4-23.3,32.4C166.9,153.8,175.9,165,194.3,171.3z"/>
		<path d="M355.2,143.2V111l-1.9-2.5c-11-14.6-28.4-25-46.7-28c-5.7-1-15.5-1.2-19.7-0.6c-9.2,1.4-17.5,3.9-23.8,7
			c-9.1,4.6-20.2,13.7-25.5,20.9l-2.4,3.3v32.1c0,36.5,0.5,33.6-5.9,33.6c-3.1,0-3.2,0.1-2.8,1.7c0.7,2.7,6.5,15.9,8.8,20.2
			c3.9,7.1,12.1,19,18.2,26.7c10.1,12.6,38.7,40.4,41.6,40.4c1.3,0,16.8-14.1,26.3-23.9c19.7-20.6,34.6-42.4,41-60.1l1.8-5H361
			C354.8,176.8,355.2,179.7,355.2,143.2z M332.6,161.1c-2.1,14.8-13.2,27.3-27.7,31.2c-4.8,1.3-14.4,1.3-19.3,0
			c-13.4-3.5-24.1-14.6-27.3-28c-4.6-19.5,7.4-39.5,27-45.1c5.2-1.5,17.5-1,22.7,0.9C324.7,126.2,335.2,143.5,332.6,161.1z"/>
		<polygon points="233.8,174.8 233.8,137.5 233.8,100.2 228.6,100.2 223.4,100.2 223.6,137.3 223.8,174.4 228.8,174.6 		"/>
		<polygon points="356.6,100.2 356.6,137.5 356.6,174.7 361.8,174.7 367,174.7 367,137.5 367,100.2 361.8,100.2 		"/>
	</g>
	<g>
		<path class="st1" d="M72.7,364.7c-1.4,0.9-3.1,1.5-5.1,2s-4.1,0.7-6.4,0.7c-6.1,0-10.9-1.5-14.2-4.5c-3.3-3-5-7.5-5-13.5v-15.8
			h-6.9v-12.4h6.9v-12.3h16.5v12.3h10.8v12.4H58.6v15.7c0,1.7,0.4,3,1.3,4c0.9,1,2.1,1.4,3.6,1.4c1.9,0,3.6-0.5,5-1.5L72.7,364.7z"
			/>
		<path class="st1" d="M125.6,347.2H91.3c0.7,2.4,2,4.3,4,5.6c2,1.3,4.5,2,7.5,2c2.3,0,4.2-0.3,5.9-1c1.7-0.6,3.3-1.7,5-3.1l8.7,9
			c-4.6,5.1-11.3,7.7-20.1,7.7c-5.5,0-10.4-1-14.5-3.1c-4.2-2.1-7.4-5-9.7-8.7c-2.3-3.7-3.4-7.9-3.4-12.6c0-4.6,1.1-8.8,3.3-12.5
			c2.2-3.7,5.3-6.6,9.3-8.7c3.9-2.1,8.4-3.1,13.3-3.1c4.7,0,9,1,12.8,2.9c3.8,1.9,6.9,4.8,9.1,8.4c2.2,3.7,3.3,8,3.3,13.1
			C125.9,343.2,125.8,344.6,125.6,347.2z M94.3,332.6c-1.7,1.5-2.8,3.4-3.3,5.9h19.3c-0.5-2.5-1.6-4.5-3.3-5.9
			c-1.7-1.4-3.8-2.2-6.4-2.2C98.2,330.4,96,331.1,94.3,332.6z"/>
		<path class="st1" d="M143.6,364.2c-4.1-2.1-7.3-5-9.6-8.7c-2.3-3.7-3.4-7.9-3.4-12.6c0-4.7,1.1-8.9,3.4-12.6
			c2.3-3.7,5.5-6.6,9.6-8.6c4.1-2.1,8.8-3.1,14-3.1c5.3,0,9.9,1.1,13.8,3.4c3.9,2.3,6.6,5.5,8.3,9.5l-12.8,6.5
			c-2.1-4.2-5.3-6.4-9.4-6.4c-3,0-5.4,1-7.4,3c-1.9,2-2.9,4.7-2.9,8.2c0,3.5,1,6.3,2.9,8.3c1.9,2,4.4,3,7.4,3c4.1,0,7.2-2.1,9.4-6.4
			l12.8,6.5c-1.6,4.1-4.4,7.2-8.3,9.5c-3.9,2.3-8.5,3.4-13.8,3.4C152.4,367.4,147.7,366.3,143.6,364.2z"/>
		<path class="st1" d="M230.7,323.9c3.6,3.5,5.4,8.7,5.4,15.7v27h-16.5v-24.3c0-6.4-2.6-9.7-7.7-9.7c-2.8,0-5.1,0.9-6.8,2.8
			c-1.7,1.9-2.6,4.6-2.6,8.4v22.8h-16.5V302h16.5v21.7c1.8-1.7,3.9-3,6.4-3.8c2.4-0.9,5-1.3,7.8-1.3
			C222.4,318.7,227.1,320.4,230.7,323.9z"/>
		<path class="st1" d="M291.2,323.9c3.6,3.5,5.4,8.7,5.4,15.7v27H280v-24.3c0-6.4-2.6-9.7-7.7-9.7c-2.8,0-5.1,0.9-6.8,2.8
			c-1.7,1.9-2.6,4.6-2.6,8.4v22.8h-16.5v-47.2h15.7v5.1c1.9-1.9,4.1-3.4,6.6-4.4c2.6-1,5.3-1.5,8.4-1.5
			C282.9,318.7,287.6,320.4,291.2,323.9z"/>
		<path class="st1" d="M317.6,364.2c-4.1-2.1-7.2-5-9.5-8.7c-2.3-3.7-3.4-7.9-3.4-12.6c0-4.6,1.1-8.8,3.4-12.5
			c2.3-3.7,5.5-6.6,9.5-8.7c4-2.1,8.6-3.1,13.7-3.1c5.1,0,9.7,1,13.7,3.1c4.1,2.1,7.2,4.9,9.5,8.6c2.3,3.7,3.4,7.9,3.4,12.6
			c0,4.7-1.1,8.9-3.4,12.6c-2.3,3.7-5.4,6.6-9.5,8.7c-4.1,2.1-8.6,3.1-13.7,3.1C326.2,367.4,321.7,366.3,317.6,364.2z M338.4,351.2
			c1.9-2,2.8-4.8,2.8-8.3c0-3.5-0.9-6.2-2.8-8.2c-1.9-2-4.2-3-7.1-3c-2.9,0-5.3,1-7.1,3c-1.9,2-2.8,4.7-2.8,8.2
			c0,3.5,0.9,6.3,2.8,8.3c1.9,2,4.2,3,7.1,3C334.2,354.2,336.6,353.2,338.4,351.2z"/>
		<path class="st0" d="M371,366c-3.8-0.9-6.9-2.1-9.2-3.5l5-11.3c2.1,1.3,4.7,2.4,7.7,3.2c3,0.8,5.9,1.2,8.8,1.2
			c2.7,0,4.6-0.3,5.7-0.8c1.1-0.6,1.7-1.3,1.7-2.4s-0.7-1.8-2-2.2c-1.4-0.4-3.5-0.9-6.5-1.3c-3.8-0.5-7-1.1-9.6-1.8
			c-2.6-0.8-4.9-2.1-6.8-4.2c-1.9-2-2.9-4.9-2.9-8.5c0-3,0.9-5.7,2.7-8c1.8-2.3,4.4-4.2,7.9-5.6c3.4-1.4,7.6-2,12.4-2
			c3.4,0,6.8,0.3,10.2,1c3.4,0.7,6.2,1.7,8.4,3l-5,11.2c-4.2-2.3-8.7-3.5-13.6-3.5c-2.6,0-4.5,0.3-5.7,0.9c-1.2,0.6-1.8,1.4-1.8,2.4
			c0,1.1,0.7,1.9,2,2.3c1.3,0.4,3.5,0.9,6.6,1.3c3.9,0.6,7.1,1.2,9.7,2c2.6,0.8,4.8,2.1,6.7,4.1c1.9,2,2.8,4.8,2.8,8.4
			c0,3-0.9,5.6-2.7,8c-1.8,2.3-4.5,4.2-8,5.5c-3.5,1.3-7.7,2-12.7,2C378.7,367.4,374.9,366.9,371,366z"/>
		<path class="st0" d="M454.5,321.7c3.5,2,6.3,4.8,8.4,8.5c2.1,3.7,3.1,8,3.1,12.8c0,4.9-1,9.1-3.1,12.8c-2.1,3.7-4.8,6.5-8.4,8.5
			c-3.5,2-7.4,3-11.7,3c-5.5,0-9.9-1.7-13.1-5v21.1h-16.5v-64h15.7v4.7c3.1-3.7,7.7-5.5,13.9-5.5C447.1,318.7,451,319.7,454.5,321.7
			z M446.5,351.2c1.9-2,2.8-4.7,2.8-8.2c0-3.5-0.9-6.2-2.8-8.2c-1.9-2-4.2-3-7.1-3c-2.9,0-5.3,1-7.1,3c-1.9,2-2.8,4.7-2.8,8.2
			c0,3.5,0.9,6.2,2.8,8.2c1.9,2,4.2,3,7.1,3C442.2,354.2,444.6,353.2,446.5,351.2z"/>
		<path class="st0" d="M483.6,364.2c-4.1-2.1-7.2-5-9.5-8.7c-2.3-3.7-3.4-7.9-3.4-12.6c0-4.6,1.1-8.8,3.4-12.5
			c2.3-3.7,5.5-6.6,9.5-8.7c4-2.1,8.6-3.1,13.7-3.1c5.1,0,9.7,1,13.7,3.1c4.1,2.1,7.2,4.9,9.5,8.6c2.3,3.7,3.4,7.9,3.4,12.6
			c0,4.7-1.1,8.9-3.4,12.6c-2.3,3.7-5.4,6.6-9.5,8.7c-4.1,2.1-8.6,3.1-13.7,3.1C492.2,367.4,487.7,366.3,483.6,364.2z M504.4,351.2
			c1.9-2,2.8-4.8,2.8-8.3c0-3.5-0.9-6.2-2.8-8.2c-1.9-2-4.2-3-7.1-3c-2.9,0-5.3,1-7.1,3c-1.9,2-2.8,4.7-2.8,8.2
			c0,3.5,0.9,6.3,2.8,8.3c1.9,2,4.2,3,7.1,3C500.2,354.2,502.5,353.2,504.4,351.2z"/>
		<path class="st0" d="M564.1,364.7c-1.4,0.9-3.1,1.5-5.1,2s-4.1,0.7-6.4,0.7c-6.1,0-10.9-1.5-14.2-4.5c-3.3-3-5-7.5-5-13.5v-15.8
			h-6.9v-12.4h6.9v-12.3H550v12.3h10.8v12.4H550v15.7c0,1.7,0.4,3,1.3,4c0.9,1,2.1,1.4,3.6,1.4c1.9,0,3.6-0.5,5-1.5L564.1,364.7z"/>
	</g>
</g>
</svg>
