<svg id="Layer_1" xmlns="http://www.w3.org/2000/svg" width="350.494" height="74.543" viewBox="0 0 350.494 74.543">
  <g id="Grupo_36" data-name="Grupo 36" transform="translate(44.811 -283.547)">
    <path id="Caminho_1266" data-name="Caminho 1266" d="M54.332,337.442a8.68,8.68,0,0,1-2.609,1.023,13.384,13.384,0,0,1-3.274.358c-3.12,0-5.575-.767-7.263-2.3s-2.557-3.836-2.557-6.905v-8.082H35.1v-6.343h3.529V308.9h8.44v6.291h5.524v6.343H47.12v8.031a2.9,2.9,0,0,0,.665,2.046,2.32,2.32,0,0,0,1.841.716,4.321,4.321,0,0,0,2.557-.767Z" transform="translate(0 -3.371)" fill="#fff"/>
    <path id="Caminho_1267" data-name="Caminho 1267" d="M100.735,333.278H83.191a4.92,4.92,0,0,0,2.046,2.864,6.907,6.907,0,0,0,3.836,1.023,7.773,7.773,0,0,0,3.018-.512,8.72,8.72,0,0,0,2.557-1.586l4.45,4.6c-2.353,2.609-5.78,3.939-10.281,3.939a16.167,16.167,0,0,1-7.417-1.586,11.739,11.739,0,0,1-6.7-10.895,12.314,12.314,0,0,1,1.688-6.394,11.759,11.759,0,0,1,4.757-4.45,14.2,14.2,0,0,1,6.8-1.586,14.5,14.5,0,0,1,6.547,1.483,11.425,11.425,0,0,1,4.655,4.3,15.348,15.348,0,0,1,1.586,8.8Zm-16.01-7.468a5.217,5.217,0,0,0-1.688,3.018h9.872a5.062,5.062,0,0,0-1.688-3.018,4.977,4.977,0,0,0-3.274-1.125A4.767,4.767,0,0,0,84.725,325.81Z" transform="translate(-19.345 -8.158)" fill="#fff"/>
    <path id="Caminho_1268" data-name="Caminho 1268" d="M137.249,341.924a12.179,12.179,0,0,1-4.91-4.45,12.811,12.811,0,0,1,0-12.89,11.715,11.715,0,0,1,4.91-4.4,15.525,15.525,0,0,1,7.161-1.586,13.634,13.634,0,0,1,7.059,1.739,10.042,10.042,0,0,1,4.245,4.859l-6.547,3.325a5.228,5.228,0,0,0-4.808-3.274,5.089,5.089,0,0,0-3.785,1.535,5.825,5.825,0,0,0-1.483,4.194,5.955,5.955,0,0,0,1.483,4.245,5.011,5.011,0,0,0,3.785,1.535c2.1,0,3.683-1.074,4.808-3.274l6.547,3.325a9.583,9.583,0,0,1-4.245,4.859,13.634,13.634,0,0,1-7.059,1.739A13.779,13.779,0,0,1,137.249,341.924Z" transform="translate(-46.652 -8.109)" fill="#fff"/>
    <path id="Caminho_1269" data-name="Caminho 1269" d="M208.864,313.2c1.841,1.79,2.762,4.45,2.762,8.031v13.81h-8.44V322.613c0-3.274-1.33-4.962-3.939-4.962a4.443,4.443,0,0,0-3.478,1.432,6.17,6.17,0,0,0-1.33,4.3v11.662H186V302h8.44v11.1a8.457,8.457,0,0,1,3.274-1.944,11.266,11.266,0,0,1,3.99-.665A10.1,10.1,0,0,1,208.864,313.2Z" transform="translate(-73.715)" fill="#fff"/>
    <path id="Caminho_1270" data-name="Caminho 1270" d="M269.315,321.311c1.841,1.79,2.762,4.45,2.762,8.031v13.81h-8.491V330.723c0-3.274-1.33-4.962-3.939-4.962a4.443,4.443,0,0,0-3.478,1.432,6.17,6.17,0,0,0-1.33,4.3v11.662H246.4V319.009h8.031v2.609a10.022,10.022,0,0,1,3.376-2.251,11.671,11.671,0,0,1,4.3-.767A10.14,10.14,0,0,1,269.315,321.311Z" transform="translate(-103.22 -8.109)" fill="#fff"/>
    <path id="Caminho_1271" data-name="Caminho 1271" d="M311.3,341.924a11.88,11.88,0,0,1-6.6-10.895,11.885,11.885,0,0,1,1.739-6.394,12.375,12.375,0,0,1,4.859-4.45,16.277,16.277,0,0,1,14.015,0,12.176,12.176,0,0,1,0,21.739,15.033,15.033,0,0,1-7.008,1.586A14.433,14.433,0,0,1,311.3,341.924Zm10.639-6.65a5.931,5.931,0,0,0,1.432-4.245,5.8,5.8,0,0,0-1.432-4.194,4.753,4.753,0,0,0-3.632-1.535,4.677,4.677,0,0,0-3.632,1.535,5.8,5.8,0,0,0-1.432,4.194,5.931,5.931,0,0,0,1.432,4.245,4.753,4.753,0,0,0,3.632,1.535A4.677,4.677,0,0,0,321.938,335.275Z" transform="translate(-131.7 -8.109)" fill="#fff"/>
    <path id="Caminho_1272" data-name="Caminho 1272" d="M366.506,342.943a16.462,16.462,0,0,1-4.706-1.79l2.557-5.78a14.718,14.718,0,0,0,3.939,1.637,17.33,17.33,0,0,0,4.5.614,7.64,7.64,0,0,0,2.916-.409,1.353,1.353,0,0,0,.87-1.228c0-.563-.358-.921-1.023-1.125a23.153,23.153,0,0,0-3.325-.665,38.688,38.688,0,0,1-4.91-.921,7.53,7.53,0,0,1-3.478-2.148,6.132,6.132,0,0,1-1.483-4.348,6.485,6.485,0,0,1,1.381-4.092,9.434,9.434,0,0,1,4.041-2.864,16.833,16.833,0,0,1,6.343-1.023,25.773,25.773,0,0,1,5.217.512,14.012,14.012,0,0,1,4.3,1.535l-2.557,5.729a14.229,14.229,0,0,0-6.956-1.79,6.887,6.887,0,0,0-2.916.46,1.383,1.383,0,0,0-.921,1.228,1.232,1.232,0,0,0,1.023,1.176,21.353,21.353,0,0,0,3.376.665,36.218,36.218,0,0,1,4.962,1.023,7.707,7.707,0,0,1,3.427,2.1,5.98,5.98,0,0,1,1.432,4.3,6.588,6.588,0,0,1-1.381,4.092,9.127,9.127,0,0,1-4.092,2.813,18.615,18.615,0,0,1-6.5,1.023A26.335,26.335,0,0,1,366.506,342.943Z" transform="translate(-159.593 -8.207)" fill="#15ff14"/>
    <path id="Caminho_1273" data-name="Caminho 1273" d="M434.325,320.186a11.322,11.322,0,0,1,4.3,4.348,13.066,13.066,0,0,1,1.586,6.547,12.933,12.933,0,0,1-1.586,6.547,10.981,10.981,0,0,1-4.3,4.348,11.846,11.846,0,0,1-5.985,1.534,8.941,8.941,0,0,1-6.7-2.557v10.793H413.2V319.009h8.031v2.4c1.586-1.893,3.939-2.813,7.11-2.813A12.427,12.427,0,0,1,434.325,320.186Zm-4.092,15.089a6.858,6.858,0,0,0,0-8.389,4.752,4.752,0,0,0-3.632-1.534,4.677,4.677,0,0,0-3.632,1.534,6.858,6.858,0,0,0,0,8.389,4.753,4.753,0,0,0,3.632,1.534A4.83,4.83,0,0,0,430.233,335.275Z" transform="translate(-184.702 -8.109)" fill="#15ff14"/>
    <path id="Caminho_1274" data-name="Caminho 1274" d="M477.3,341.924a11.88,11.88,0,0,1-6.6-10.895,11.885,11.885,0,0,1,1.739-6.394,12.375,12.375,0,0,1,4.859-4.45,16.277,16.277,0,0,1,14.015,0,12.176,12.176,0,0,1,0,21.739,15.033,15.033,0,0,1-7.008,1.586A14.433,14.433,0,0,1,477.3,341.924Zm10.639-6.65a5.931,5.931,0,0,0,1.432-4.245,5.8,5.8,0,0,0-1.432-4.194,4.753,4.753,0,0,0-3.632-1.535,4.677,4.677,0,0,0-3.632,1.535,5.8,5.8,0,0,0-1.432,4.194,5.931,5.931,0,0,0,1.432,4.245,5.065,5.065,0,0,0,7.263,0Z" transform="translate(-212.791 -8.109)" fill="#15ff14"/>
    <path id="Caminho_1275" data-name="Caminho 1275" d="M545.732,337.442a8.679,8.679,0,0,1-2.609,1.023,13.383,13.383,0,0,1-3.274.358c-3.12,0-5.575-.767-7.263-2.3s-2.557-3.836-2.557-6.905v-8.082H526.5v-6.343h3.529V308.9h8.491v6.291h5.524v6.343H538.52v8.031a2.9,2.9,0,0,0,.665,2.046,2.32,2.32,0,0,0,1.841.716,4.321,4.321,0,0,0,2.558-.767Z" transform="translate(-240.049 -3.371)" fill="#15ff14"/>
  </g>
  <g id="Grupo_35" data-name="Grupo 35" transform="translate(-165.189 -9.886)">
    <path id="Caminho_1260" data-name="Caminho 1260" d="M270.519,118.784a13.331,13.331,0,0,0-5.9-.234,9.83,9.83,0,0,0,.078,19.006,12.543,12.543,0,0,0,5.018,0,9.847,9.847,0,0,0,.806-18.772Z" transform="translate(-68.199 -80.242)" fill="#15ff14"/>
    <path id="Caminho_1261" data-name="Caminho 1261" d="M172.16,52.14l1.4.494.494,1.742q3,10.491,13.052,20.8c3.874,3.978,9.1,8.424,10.634,9.074a3.978,3.978,0,0,0,2.99-.26,74.62,74.62,0,0,0,8.294-7.15c5.9-5.8,9.958-11.18,12.688-16.874a37.472,37.472,0,0,0,2.5-6.786c.1-.546.208-.624,1.482-1.014,4-1.274,6.63-4.134,7.1-7.722.572-4.5-1.326-7.956-5.486-9.958l-1.716-.832V31.21a23.492,23.492,0,0,0-.728-6.734c-2.418-7.1-9.958-12.428-20.1-14.222a62.915,62.915,0,0,0-8.5-.338,33.731,33.731,0,0,0-5.928.988c-7.488,1.82-13.6,6.214-16.3,11.726-1.144,2.34-1.352,3.38-1.482,7.488l-.1,3.536-1.69.832c-4.134,2.028-6.058,5.486-5.46,9.984C165.686,48.032,168.13,50.736,172.16,52.14Zm8.216-9.126-.026-9.646h2.7v19.4l-1.3-.052-1.3-.052Zm36.088,11.57c-1.638,4.6-5.538,10.27-10.66,15.626-2.47,2.574-6.5,6.214-6.838,6.214-.754,0-8.19-7.228-10.816-10.5a61.118,61.118,0,0,1-4.732-6.942,50.6,50.6,0,0,1-2.288-5.252c-.1-.442-.078-.442.728-.442,1.638,0,1.534.754,1.534-8.736V36.2l.624-.858a21.153,21.153,0,0,1,6.63-5.434,22.669,22.669,0,0,1,6.188-1.82,23.113,23.113,0,0,1,5.122.156,19.353,19.353,0,0,1,12.142,7.28l.494.65v8.372c0,9.49-.13,8.736,1.508,8.736h.832Zm1.2-11.518v9.7h-2.7v-19.4h2.7Zm.234-13.806a25.706,25.706,0,0,0-14.248-7.852,33.242,33.242,0,0,0-9.23-.026,25.463,25.463,0,0,0-6.63,2.184,23.66,23.66,0,0,0-7.072,5.07l-2.236,2.184.1-2a9.688,9.688,0,0,1,1.17-4.706c1.82-3.614,5.538-6.578,10.166-8.112a20.606,20.606,0,0,1,4.836-1.2,36.633,36.633,0,0,1,8.268,0c5.876.78,11.362,3.666,13.962,7.332a10.823,10.823,0,0,1,2.392,6.734l.1,2.054Zm-46.2,5.356,1.2-.494.1-3.744c.13-4.238.338-5.3,1.586-7.748,2.366-4.706,7.41-8.58,13.806-10.634a44.5,44.5,0,0,1,7.02-1.482c.338-.026,2.236-.052,4.212-.026A29.4,29.4,0,0,1,209.6,12a33.666,33.666,0,0,1,7.644,3.692,19.9,19.9,0,0,1,6.162,6.942c1.248,2.47,1.456,3.51,1.534,7.722l.078,3.744.676.26c4.524,1.82,6.656,4.6,6.656,8.684a8.294,8.294,0,0,1-.806,3.848c-1.482,3.094-5.408,5.3-10.348,5.772l-1.222.13V40.44c0-9.984-.052-12.584-.26-13.572-1.274-6.032-6.812-10.556-15.158-12.35a20.834,20.834,0,0,0-5.564-.416,20.949,20.949,0,0,0-5.564.416c-4.992,1.066-8.736,2.99-11.57,5.876a12.863,12.863,0,0,0-3.276,5.174L178.088,27l-.052,12.87-.052,12.87h-.6a21.24,21.24,0,0,1-4.628-.884c-4.784-1.638-7.15-4.55-7.15-8.814C165.634,39.14,167.714,36.228,171.692,34.616Z" transform="translate(0 0)" fill="#15ff14"/>
    <path id="Caminho_1262" data-name="Caminho 1262" d="M174.024,53.518a21.24,21.24,0,0,0,4.628.884h.6l.052-12.87.052-12.87.494-1.43a12.862,12.862,0,0,1,3.276-5.174c2.834-2.886,6.578-4.784,11.57-5.876a20.835,20.835,0,0,1,5.564-.416,20.949,20.949,0,0,1,5.564.416c8.346,1.794,13.884,6.318,15.158,12.35.208.962.26,3.588.26,13.572v12.35l1.222-.13c4.94-.468,8.892-2.652,10.348-5.772a8.3,8.3,0,0,0,.806-3.848c0-4.082-2.132-6.864-6.656-8.684l-.676-.26-.078-3.744c-.078-4.212-.312-5.252-1.534-7.722a19.9,19.9,0,0,0-6.162-6.942,33.667,33.667,0,0,0-7.644-3.692,29.4,29.4,0,0,0-9.984-1.508c-1.976-.026-3.874-.026-4.212.026a44.5,44.5,0,0,0-7.02,1.482c-6.4,2.054-11.44,5.928-13.806,10.634-1.248,2.47-1.456,3.51-1.586,7.748l-.1,3.744-1.2.494C168.98,37.892,166.9,40.8,166.9,44.7,166.9,48.968,169.24,51.88,174.024,53.518Z" transform="translate(-1.266 -1.664)"/>
    <path id="Caminho_1263" data-name="Caminho 1263" d="M259.839,96.108V87.736l-.494-.65a19.42,19.42,0,0,0-12.142-7.28,18.747,18.747,0,0,0-17.94,7.1l-.624.858v8.346c0,9.49.13,8.736-1.534,8.736-.806,0-.832.026-.728.442a50.613,50.613,0,0,0,2.288,5.252,61.118,61.118,0,0,0,4.732,6.942c2.626,3.276,10.062,10.5,10.816,10.5.338,0,4.368-3.666,6.838-6.214,5.122-5.356,9-11.024,10.66-15.626l.468-1.3h-.832C259.735,104.845,259.839,105.6,259.839,96.108Zm-5.876,4.654a9.943,9.943,0,0,1-7.2,8.112,12.543,12.543,0,0,1-5.018,0,9.83,9.83,0,0,1-.078-19.006,13.331,13.331,0,0,1,5.9.234A9.915,9.915,0,0,1,253.963,100.763Z" transform="translate(-45.246 -51.561)"/>
    <path id="Caminho_1264" data-name="Caminho 1264" d="M226.1,119.6V100.2h-2.7l.052,9.646.052,9.646,1.3.052Z" transform="translate(-43.076 -66.832)"/>
    <path id="Caminho_1265" data-name="Caminho 1265" d="M356.6,100.2v19.37h2.7V100.2h-2.7Z" transform="translate(-141.644 -66.832)"/>
  </g>
</svg>
