<svg xmlns="http://www.w3.org/2000/svg" width="67.703" height="74.543" viewBox="0 0 67.703 74.543">
  <g id="Grupo_35" data-name="Grupo 35" transform="translate(-165.189 -9.886)">
    <path id="Caminho_1260" data-name="Caminho 1260" d="M270.519,118.784a13.331,13.331,0,0,0-5.9-.234,9.83,9.83,0,0,0,.078,19.006,12.543,12.543,0,0,0,5.018,0,9.847,9.847,0,0,0,.806-18.772Z" transform="translate(-68.199 -80.242)" fill="#15ff14"/>
    <path id="Caminho_1261" data-name="Caminho 1261" d="M172.16,52.14l1.4.494.494,1.742q3,10.491,13.052,20.8c3.874,3.978,9.1,8.424,10.634,9.074a3.978,3.978,0,0,0,2.99-.26,74.62,74.62,0,0,0,8.294-7.15c5.9-5.8,9.958-11.18,12.688-16.874a37.472,37.472,0,0,0,2.5-6.786c.1-.546.208-.624,1.482-1.014,4-1.274,6.63-4.134,7.1-7.722.572-4.5-1.326-7.956-5.486-9.958l-1.716-.832V31.21a23.492,23.492,0,0,0-.728-6.734c-2.418-7.1-9.958-12.428-20.1-14.222a62.915,62.915,0,0,0-8.5-.338,33.731,33.731,0,0,0-5.928.988c-7.488,1.82-13.6,6.214-16.3,11.726-1.144,2.34-1.352,3.38-1.482,7.488l-.1,3.536-1.69.832c-4.134,2.028-6.058,5.486-5.46,9.984C165.686,48.032,168.13,50.736,172.16,52.14Zm8.216-9.126-.026-9.646h2.7v19.4l-1.3-.052-1.3-.052Zm36.088,11.57c-1.638,4.6-5.538,10.27-10.66,15.626-2.47,2.574-6.5,6.214-6.838,6.214-.754,0-8.19-7.228-10.816-10.5a61.118,61.118,0,0,1-4.732-6.942,50.6,50.6,0,0,1-2.288-5.252c-.1-.442-.078-.442.728-.442,1.638,0,1.534.754,1.534-8.736V36.2l.624-.858a21.153,21.153,0,0,1,6.63-5.434,22.669,22.669,0,0,1,6.188-1.82,23.113,23.113,0,0,1,5.122.156,19.353,19.353,0,0,1,12.142,7.28l.494.65v8.372c0,9.49-.13,8.736,1.508,8.736h.832Zm1.2-11.518v9.7h-2.7v-19.4h2.7Zm.234-13.806a25.706,25.706,0,0,0-14.248-7.852,33.242,33.242,0,0,0-9.23-.026,25.463,25.463,0,0,0-6.63,2.184,23.66,23.66,0,0,0-7.072,5.07l-2.236,2.184.1-2a9.688,9.688,0,0,1,1.17-4.706c1.82-3.614,5.538-6.578,10.166-8.112a20.606,20.606,0,0,1,4.836-1.2,36.633,36.633,0,0,1,8.268,0c5.876.78,11.362,3.666,13.962,7.332a10.823,10.823,0,0,1,2.392,6.734l.1,2.054Zm-46.2,5.356,1.2-.494.1-3.744c.13-4.238.338-5.3,1.586-7.748,2.366-4.706,7.41-8.58,13.806-10.634a44.5,44.5,0,0,1,7.02-1.482c.338-.026,2.236-.052,4.212-.026A29.4,29.4,0,0,1,209.6,12a33.666,33.666,0,0,1,7.644,3.692,19.9,19.9,0,0,1,6.162,6.942c1.248,2.47,1.456,3.51,1.534,7.722l.078,3.744.676.26c4.524,1.82,6.656,4.6,6.656,8.684a8.294,8.294,0,0,1-.806,3.848c-1.482,3.094-5.408,5.3-10.348,5.772l-1.222.13V40.44c0-9.984-.052-12.584-.26-13.572-1.274-6.032-6.812-10.556-15.158-12.35a20.834,20.834,0,0,0-5.564-.416,20.949,20.949,0,0,0-5.564.416c-4.992,1.066-8.736,2.99-11.57,5.876a12.863,12.863,0,0,0-3.276,5.174L178.088,27l-.052,12.87-.052,12.87h-.6a21.24,21.24,0,0,1-4.628-.884c-4.784-1.638-7.15-4.55-7.15-8.814C165.634,39.14,167.714,36.228,171.692,34.616Z" transform="translate(0 0)" fill="#15ff14"/>
    <path id="Caminho_1262" data-name="Caminho 1262" d="M174.024,53.518a21.24,21.24,0,0,0,4.628.884h.6l.052-12.87.052-12.87.494-1.43a12.862,12.862,0,0,1,3.276-5.174c2.834-2.886,6.578-4.784,11.57-5.876a20.835,20.835,0,0,1,5.564-.416,20.949,20.949,0,0,1,5.564.416c8.346,1.794,13.884,6.318,15.158,12.35.208.962.26,3.588.26,13.572v12.35l1.222-.13c4.94-.468,8.892-2.652,10.348-5.772a8.3,8.3,0,0,0,.806-3.848c0-4.082-2.132-6.864-6.656-8.684l-.676-.26-.078-3.744c-.078-4.212-.312-5.252-1.534-7.722a19.9,19.9,0,0,0-6.162-6.942,33.667,33.667,0,0,0-7.644-3.692,29.4,29.4,0,0,0-9.984-1.508c-1.976-.026-3.874-.026-4.212.026a44.5,44.5,0,0,0-7.02,1.482c-6.4,2.054-11.44,5.928-13.806,10.634-1.248,2.47-1.456,3.51-1.586,7.748l-.1,3.744-1.2.494C168.98,37.892,166.9,40.8,166.9,44.7,166.9,48.968,169.24,51.88,174.024,53.518Z" transform="translate(-1.266 -1.664)"/>
    <path id="Caminho_1263" data-name="Caminho 1263" d="M259.839,96.108V87.736l-.494-.65a19.42,19.42,0,0,0-12.142-7.28,18.747,18.747,0,0,0-17.94,7.1l-.624.858v8.346c0,9.49.13,8.736-1.534,8.736-.806,0-.832.026-.728.442a50.613,50.613,0,0,0,2.288,5.252,61.118,61.118,0,0,0,4.732,6.942c2.626,3.276,10.062,10.5,10.816,10.5.338,0,4.368-3.666,6.838-6.214,5.122-5.356,9-11.024,10.66-15.626l.468-1.3h-.832C259.735,104.845,259.839,105.6,259.839,96.108Zm-5.876,4.654a9.943,9.943,0,0,1-7.2,8.112,12.543,12.543,0,0,1-5.018,0,9.83,9.83,0,0,1-.078-19.006,13.331,13.331,0,0,1,5.9.234A9.915,9.915,0,0,1,253.963,100.763Z" transform="translate(-45.246 -51.561)"/>
    <path id="Caminho_1264" data-name="Caminho 1264" d="M226.1,119.6V100.2h-2.7l.052,9.646.052,9.646,1.3.052Z" transform="translate(-43.076 -66.832)"/>
    <path id="Caminho_1265" data-name="Caminho 1265" d="M356.6,100.2v19.37h2.7V100.2h-2.7Z" transform="translate(-141.644 -66.832)"/>
  </g>
</svg>
