<svg id="Componente_35_2" data-name="Componente 35 – 2" xmlns="http://www.w3.org/2000/svg" width="261.755" height="137.385" viewBox="0 0 261.755 137.385">
  <g id="Grupo_36" data-name="Grupo 36" transform="translate(-35.1 -204.893)">
    <path id="Caminho_1266" data-name="Caminho 1266" d="M53.7,336.511a8.4,8.4,0,0,1-2.524.99,12.947,12.947,0,0,1-3.167.346c-3.018,0-5.393-.742-7.026-2.227s-2.474-3.711-2.474-6.68v-7.818H35.1v-6.136h3.414V308.9h8.164v6.086h5.344v6.136H46.728v7.769a2.809,2.809,0,0,0,.643,1.979,2.245,2.245,0,0,0,1.781.693,4.18,4.18,0,0,0,2.474-.742Z" transform="translate(0 -3.486)" fill="#fff"/>
    <path id="Caminho_1267" data-name="Caminho 1267" d="M99.886,332.8H82.914a4.759,4.759,0,0,0,1.979,2.771,6.682,6.682,0,0,0,3.711.99,7.519,7.519,0,0,0,2.919-.495A8.435,8.435,0,0,0,94,334.534l4.3,4.453c-2.276,2.524-5.591,3.81-9.946,3.81a15.64,15.64,0,0,1-7.175-1.534,11.356,11.356,0,0,1-6.482-10.54,11.912,11.912,0,0,1,1.633-6.185,11.375,11.375,0,0,1,4.6-4.3,13.739,13.739,0,0,1,6.581-1.534,14.027,14.027,0,0,1,6.334,1.435,11.053,11.053,0,0,1,4.5,4.156,14.847,14.847,0,0,1,1.534,8.511ZM84.4,325.578a5.047,5.047,0,0,0-1.633,2.919h9.55a4.9,4.9,0,0,0-1.633-2.919,4.815,4.815,0,0,0-3.167-1.089A4.611,4.611,0,0,0,84.4,325.578Z" transform="translate(-20.005 -8.437)" fill="#fff"/>
    <path id="Caminho_1268" data-name="Caminho 1268" d="M137.033,341.163a11.782,11.782,0,0,1-4.75-4.3,12.393,12.393,0,0,1,0-12.469,11.333,11.333,0,0,1,4.75-4.255,15.018,15.018,0,0,1,6.927-1.534,13.189,13.189,0,0,1,6.828,1.682,9.714,9.714,0,0,1,4.107,4.7l-6.334,3.216a5.058,5.058,0,0,0-4.651-3.167,4.923,4.923,0,0,0-3.662,1.484,5.635,5.635,0,0,0-1.435,4.057,5.76,5.76,0,0,0,1.435,4.107,4.847,4.847,0,0,0,3.662,1.484c2.029,0,3.563-1.039,4.651-3.167l6.334,3.216a9.27,9.27,0,0,1-4.107,4.7,13.19,13.19,0,0,1-6.828,1.682A13.329,13.329,0,0,1,137.033,341.163Z" transform="translate(-48.245 -8.386)" fill="#fff"/>
    <path id="Caminho_1269" data-name="Caminho 1269" d="M208.118,312.836c1.781,1.732,2.672,4.3,2.672,7.769v13.36h-8.164V321.941c0-3.167-1.287-4.8-3.81-4.8a4.3,4.3,0,0,0-3.365,1.385,5.969,5.969,0,0,0-1.287,4.156v11.282H186V302h8.164v10.737a8.18,8.18,0,0,1,3.167-1.88,10.9,10.9,0,0,1,3.86-.643A9.772,9.772,0,0,1,208.118,312.836Z" transform="translate(-76.233)" fill="#fff"/>
    <path id="Caminho_1270" data-name="Caminho 1270" d="M268.568,321.222c1.781,1.732,2.672,4.3,2.672,7.769v13.36h-8.214V330.327c0-3.167-1.286-4.8-3.81-4.8a4.3,4.3,0,0,0-3.365,1.385,5.969,5.969,0,0,0-1.287,4.156v11.282H246.4V319h7.769v2.524a9.7,9.7,0,0,1,3.266-2.177,11.291,11.291,0,0,1,4.156-.742A9.81,9.81,0,0,1,268.568,321.222Z" transform="translate(-106.746 -8.386)" fill="#fff"/>
    <path id="Caminho_1271" data-name="Caminho 1271" d="M311.083,341.163a11.493,11.493,0,0,1-6.383-10.54,11.5,11.5,0,0,1,1.682-6.185,11.971,11.971,0,0,1,4.7-4.3,15.746,15.746,0,0,1,13.558,0,11.779,11.779,0,0,1,0,21.03,14.543,14.543,0,0,1-6.779,1.534A13.962,13.962,0,0,1,311.083,341.163Zm10.292-6.433a5.738,5.738,0,0,0,1.385-4.107,5.612,5.612,0,0,0-1.385-4.057,4.6,4.6,0,0,0-3.513-1.484,4.524,4.524,0,0,0-3.513,1.484,5.612,5.612,0,0,0-1.385,4.057,5.738,5.738,0,0,0,1.385,4.107,4.6,4.6,0,0,0,3.513,1.484A4.525,4.525,0,0,0,321.375,334.731Z" transform="translate(-136.199 -8.386)" fill="#fff"/>
    <path id="Caminho_1272" data-name="Caminho 1272" d="M366.352,342.155a15.924,15.924,0,0,1-4.552-1.732l2.474-5.591a14.237,14.237,0,0,0,3.81,1.583,16.764,16.764,0,0,0,4.354.594,7.391,7.391,0,0,0,2.82-.4,1.309,1.309,0,0,0,.841-1.188c0-.544-.346-.891-.99-1.089a22.4,22.4,0,0,0-3.216-.643,37.429,37.429,0,0,1-4.75-.891,7.285,7.285,0,0,1-3.365-2.078,5.932,5.932,0,0,1-1.435-4.206,6.273,6.273,0,0,1,1.336-3.959,9.126,9.126,0,0,1,3.909-2.771,16.285,16.285,0,0,1,6.136-.99,24.933,24.933,0,0,1,5.047.495,13.555,13.555,0,0,1,4.156,1.484l-2.474,5.542a13.765,13.765,0,0,0-6.729-1.732,6.662,6.662,0,0,0-2.82.445,1.338,1.338,0,0,0-.891,1.188,1.192,1.192,0,0,0,.99,1.138,20.657,20.657,0,0,0,3.266.643,35.035,35.035,0,0,1,4.8.99,7.455,7.455,0,0,1,3.315,2.029,5.785,5.785,0,0,1,1.385,4.156,6.373,6.373,0,0,1-1.336,3.959,8.829,8.829,0,0,1-3.958,2.721,18.007,18.007,0,0,1-6.284.99A25.477,25.477,0,0,1,366.352,342.155Z" transform="translate(-165.045 -8.487)" fill="#15ff14"/>
    <path id="Caminho_1273" data-name="Caminho 1273" d="M433.636,320.134a10.953,10.953,0,0,1,4.156,4.206,12.639,12.639,0,0,1,1.534,6.334,12.511,12.511,0,0,1-1.534,6.334,10.623,10.623,0,0,1-4.156,4.206,11.46,11.46,0,0,1-5.789,1.484,8.65,8.65,0,0,1-6.482-2.474v10.441H413.2V319h7.768v2.326c1.534-1.831,3.81-2.721,6.878-2.721A12.022,12.022,0,0,1,433.636,320.134Zm-3.958,14.6a6.634,6.634,0,0,0,0-8.115,4.6,4.6,0,0,0-3.513-1.484,4.524,4.524,0,0,0-3.513,1.484,6.634,6.634,0,0,0,0,8.115,4.6,4.6,0,0,0,3.513,1.484A4.672,4.672,0,0,0,429.677,334.731Z" transform="translate(-191.012 -8.386)" fill="#15ff14"/>
    <path id="Caminho_1274" data-name="Caminho 1274" d="M477.083,341.163a11.493,11.493,0,0,1-6.383-10.54,11.5,11.5,0,0,1,1.682-6.185,11.971,11.971,0,0,1,4.7-4.3,15.746,15.746,0,0,1,13.558,0,11.779,11.779,0,0,1,0,21.03,14.543,14.543,0,0,1-6.779,1.534A13.962,13.962,0,0,1,477.083,341.163Zm10.292-6.433a5.738,5.738,0,0,0,1.385-4.107,5.612,5.612,0,0,0-1.385-4.057,4.6,4.6,0,0,0-3.513-1.484,4.524,4.524,0,0,0-3.513,1.484,5.612,5.612,0,0,0-1.385,4.057,5.738,5.738,0,0,0,1.385,4.107,4.9,4.9,0,0,0,7.026,0Z" transform="translate(-220.06 -8.386)" fill="#15ff14"/>
    <path id="Caminho_1275" data-name="Caminho 1275" d="M545.1,336.511a8.4,8.4,0,0,1-2.524.99,12.945,12.945,0,0,1-3.167.346c-3.018,0-5.393-.742-7.026-2.227s-2.474-3.711-2.474-6.68v-7.818H526.5v-6.136h3.414V308.9h8.214v6.086h5.344v6.136h-5.344v7.769a2.808,2.808,0,0,0,.643,1.979,2.244,2.244,0,0,0,1.781.693,4.18,4.18,0,0,0,2.474-.742Z" transform="translate(-248.249 -3.486)" fill="#15ff14"/>
  </g>
  <g id="Grupo_35" data-name="Grupo 35" transform="translate(-73.928 -9.886)">
    <path id="Caminho_1260" data-name="Caminho 1260" d="M272.762,118.863a15.6,15.6,0,0,0-6.907-.274,11.5,11.5,0,0,0,.091,22.243,14.679,14.679,0,0,0,5.873,0,11.524,11.524,0,0,0,.943-21.969Z" transform="translate(-64.118 -75.441)" fill="#15ff14"/>
    <path id="Caminho_1261" data-name="Caminho 1261" d="M173.347,59.336l1.643.578.578,2.039q3.514,12.278,15.275,24.343c4.534,4.656,10.65,9.859,12.445,10.62a4.655,4.655,0,0,0,3.5-.3,87.33,87.33,0,0,0,9.707-8.368c6.907-6.786,11.654-13.084,14.849-19.748a43.852,43.852,0,0,0,2.921-7.942c.122-.639.243-.73,1.734-1.187,4.686-1.491,7.759-4.838,8.307-9.037.669-5.264-1.552-9.311-6.42-11.654l-2.008-.974v-2.86a27.493,27.493,0,0,0-.852-7.881c-2.83-8.307-11.654-14.545-23.521-16.644a73.631,73.631,0,0,0-9.95-.4,39.475,39.475,0,0,0-6.938,1.156c-8.763,2.13-15.914,7.272-19.079,13.723-1.339,2.739-1.582,3.956-1.734,8.763l-.122,4.138-1.978.974c-4.838,2.373-7.09,6.42-6.39,11.685C165.77,54.529,168.631,57.693,173.347,59.336Zm9.615-10.68-.03-11.289H186.1v22.7l-1.521-.061-1.521-.061ZM225.2,62.2c-1.917,5.386-6.481,12.019-12.476,18.288-2.891,3.012-7.607,7.272-8,7.272-.882,0-9.585-8.459-12.658-12.293a71.526,71.526,0,0,1-5.538-8.124,59.225,59.225,0,0,1-2.678-6.147c-.122-.517-.091-.517.852-.517,1.917,0,1.8.882,1.8-10.224V40.684l.73-1a24.756,24.756,0,0,1,7.759-6.36,26.53,26.53,0,0,1,7.242-2.13,27.05,27.05,0,0,1,5.994.183,22.649,22.649,0,0,1,14.21,8.52l.578.761v9.8c0,11.106-.152,10.224,1.765,10.224h.974Zm1.4-13.48v11.35h-3.165v-22.7H226.6Zm.274-16.158A30.084,30.084,0,0,0,210.2,23.37a38.9,38.9,0,0,0-10.8-.03,29.8,29.8,0,0,0-7.759,2.556,27.69,27.69,0,0,0-8.277,5.934l-2.617,2.556.122-2.343a11.338,11.338,0,0,1,1.369-5.508c2.13-4.23,6.481-7.7,11.9-9.494a24.116,24.116,0,0,1,5.66-1.4,42.872,42.872,0,0,1,9.676,0c6.877.913,13.3,4.29,16.34,8.581a12.667,12.667,0,0,1,2.8,7.881l.122,2.4ZM172.8,38.827l1.4-.578.122-4.382c.152-4.96.4-6.207,1.856-9.068,2.769-5.508,8.672-10.041,16.158-12.445a52.076,52.076,0,0,1,8.216-1.734c.4-.03,2.617-.061,4.929-.03a34.4,34.4,0,0,1,11.685,1.765,39.4,39.4,0,0,1,8.946,4.321,23.284,23.284,0,0,1,7.212,8.124c1.461,2.891,1.7,4.108,1.8,9.037l.091,4.382.791.3c5.295,2.13,7.79,5.386,7.79,10.163a9.707,9.707,0,0,1-.943,4.5c-1.734,3.621-6.329,6.207-12.111,6.755l-1.43.152V45.643c0-11.685-.061-14.727-.3-15.884-1.491-7.059-7.972-12.354-17.74-14.454a24.383,24.383,0,0,0-6.512-.487,24.517,24.517,0,0,0-6.512.487c-5.842,1.248-10.224,3.5-13.541,6.877a15.053,15.053,0,0,0-3.834,6.055l-.578,1.674-.061,15.062-.061,15.062h-.7A24.857,24.857,0,0,1,174.047,59c-5.6-1.917-8.368-5.325-8.368-10.315C165.71,44.122,168.144,40.714,172.8,38.827Z" transform="translate(0 0)" fill="#15ff14"/>
    <path id="Caminho_1262" data-name="Caminho 1262" d="M175.237,60.566a24.857,24.857,0,0,0,5.416,1.035h.7l.061-15.062.061-15.062.578-1.674a15.053,15.053,0,0,1,3.834-6.055c3.317-3.378,7.7-5.6,13.541-6.877a24.384,24.384,0,0,1,6.512-.487,24.517,24.517,0,0,1,6.512.487c9.768,2.1,16.249,7.394,17.74,14.454.243,1.126.3,4.2.3,15.884V61.662l1.43-.152c5.781-.548,10.407-3.1,12.111-6.755a9.708,9.708,0,0,0,.943-4.5c0-4.777-2.5-8.033-7.79-10.163l-.791-.3-.091-4.382c-.091-4.929-.365-6.147-1.8-9.037A23.284,23.284,0,0,0,227.3,18.24a39.4,39.4,0,0,0-8.946-4.321,34.4,34.4,0,0,0-11.685-1.765c-2.313-.03-4.534-.03-4.929.03a52.076,52.076,0,0,0-8.216,1.734c-7.485,2.4-13.389,6.938-16.158,12.445-1.461,2.891-1.7,4.108-1.856,9.068l-.122,4.382-1.4.578c-4.656,1.887-7.09,5.295-7.09,9.859C166.9,55.241,169.639,58.649,175.237,60.566Z" transform="translate(-1.19 -1.564)" fill="#0e1111"/>
    <path id="Caminho_1263" data-name="Caminho 1263" d="M265.545,98.926v-9.8l-.578-.761a22.728,22.728,0,0,0-14.21-8.52,21.94,21.94,0,0,0-21,8.307l-.73,1v9.768c0,11.106.152,10.224-1.8,10.224-.943,0-.974.03-.852.517a59.236,59.236,0,0,0,2.678,6.147,71.524,71.524,0,0,0,5.538,8.124c3.073,3.834,11.776,12.293,12.658,12.293.4,0,5.112-4.29,8-7.272,5.994-6.268,10.528-12.9,12.476-18.288l.548-1.521h-.974C265.423,109.15,265.545,110.033,265.545,98.926Zm-6.877,5.447a11.636,11.636,0,0,1-8.429,9.494,14.679,14.679,0,0,1-5.873,0,11.5,11.5,0,0,1-.091-22.243,15.6,15.6,0,0,1,6.907.274A11.6,11.6,0,0,1,258.668,104.373Z" transform="translate(-42.539 -48.475)" fill="#0e1111"/>
    <path id="Caminho_1264" data-name="Caminho 1264" d="M226.565,122.9V100.2H223.4l.061,11.289.061,11.289,1.521.061Z" transform="translate(-40.498 -62.833)" fill="#0e1111"/>
    <path id="Caminho_1265" data-name="Caminho 1265" d="M356.6,100.2v22.669h3.165V100.2H356.6Z" transform="translate(-133.167 -62.833)" fill="#0e1111"/>
  </g>
</svg>
